<svg xmlns="http://www.w3.org/2000/svg" xmlns:xlink="http://www.w3.org/1999/xlink" width="568" height="283.377" viewBox="0 0 568 283.377">
  <defs>
    <clipPath id="clip-path">
      <rect id="Rectangle_26" data-name="Rectangle 26" width="60.359" height="58.868" fill="#00e2c7"/>
    </clipPath>
    <clipPath id="clip-path-2">
      <path id="Path_20" data-name="Path 20" d="M0,.39H73.952V54.932H0Z" transform="translate(0 -0.39)" fill="#00e2c7"/>
    </clipPath>
    <clipPath id="clip-path-3">
      <rect id="Rectangle_27" data-name="Rectangle 27" width="60.903" height="60.552" fill="#00e2c7"/>
    </clipPath>
  </defs>
  <g id="Group_22" data-name="Group 22" transform="translate(-6855 1375.449)">
    <g id="OW-Logo_Primary_Reversed" transform="translate(6855 -1361.786)">
      <path id="OW-Logo_Pill_Navy" d="M60.406,3.265a21.224,21.224,0,0,1,0,42.448H24.489a21.224,21.224,0,1,1,0-42.448H60.406m0-3.265H24.489a24.489,24.489,0,1,0,0,48.978H60.406A24.489,24.489,0,0,0,60.406,0ZM53.995,13.224a1.96,1.96,0,0,0-1.959,1.469l-4.9,15.183L42.077,14.693a2.287,2.287,0,0,0-1.959-1.469,1.985,1.985,0,0,0-1.959,1.959,1.223,1.223,0,0,0,.163.816l7.02,18.122A1.939,1.939,0,0,0,47.3,35.754h.327a1.939,1.939,0,0,0,1.959-1.633l4.9-14.367,4.9,14.367a1.939,1.939,0,0,0,1.959,1.633h.327a2.069,2.069,0,0,0,1.959-1.633l6.53-18.285a1.472,1.472,0,0,0,.163-.816,1.96,1.96,0,0,0-1.959-1.8A2.355,2.355,0,0,0,66.4,14.693l-5.224,15.02-4.9-15.02a1.96,1.96,0,0,0-1.959-1.469Zm-21.06,3.1a10.83,10.83,0,0,0-8.163-3.265,11.474,11.474,0,0,0-8.163,3.265,12.364,12.364,0,0,0-3.428,8.163A11.159,11.159,0,0,0,24.608,35.917a11.474,11.474,0,0,0,8.163-3.265A10.974,10.974,0,0,0,36.2,24.489,10.83,10.83,0,0,0,32.934,16.326ZM30.322,30.04a7.493,7.493,0,0,1-10.775,0,7.9,7.9,0,0,1-2.122-5.551,6.9,6.9,0,0,1,1.959-5.551,7.4,7.4,0,0,1,5.388-2.286,7.533,7.533,0,0,1,7.51,7.836l.02.394a7.851,7.851,0,0,1-1.979,5.157Z" fill="#00e2c7"/>
    </g>
    <g id="Group" transform="translate(7038.814 -1164.958)">
      <path id="Rectangle_55" data-name="Rectangle 55" d="M78.459.46H91.867a13.123,13.123,0,1,1,0,26.246H78.459ZM91.867,22.407a8.824,8.824,0,1,0,0-17.649H82.758V22.407Z" transform="translate(-56.227 -0.46)" fill="#00e2c7"/>
      <path id="Rectangle_55_2" data-name="Rectangle 55_2" d="M13.582.46H26.99V26.705H13.582a13.123,13.123,0,1,1,0-26.246Zm9.109,4.3H13.582a8.824,8.824,0,1,0,0,17.649h9.109Z" transform="translate(-0.459 -0.46)" fill="#00e2c7"/>
      <path id="Rectangle_55_3" data-name="Rectangle 55_3" d="M13.582,77.461H26.99v26.246H13.582a13.123,13.123,0,1,1,0-26.246Zm9.109,4.3H13.582a8.824,8.824,0,1,0,0,17.649h9.109Z" transform="translate(-0.459 -55.513)" fill="#00e2c7"/>
      <path id="Rectangle_55_4" data-name="Rectangle 55_4" d="M13.582,154.459H26.99v12.98a13.316,13.316,0,0,1-13.337,13.265,13.123,13.123,0,1,1-.071-26.246Zm9.109,4.3H13.582a8.825,8.825,0,1,0,.071,17.649,9.013,9.013,0,0,0,9.039-8.967Z" transform="translate(-0.459 -110.565)" fill="#00e2c7"/>
      <path id="Rectangle_55_5" data-name="Rectangle 55_5" d="M91.582,77.461h.285a13.266,13.266,0,1,1-.285,0Zm0,21.947a8.827,8.827,0,1,0,.285-17.649h-.285a8.824,8.824,0,1,0,0,17.649Z" transform="translate(-56.227 -55.513)" fill="#00e2c7"/>
    </g>
    <g id="Group_17" data-name="Group 17" transform="translate(7033.336 -1372.111)">
      <g id="Group_16" data-name="Group 16" clip-path="url(#clip-path)">
        <path id="Path_11" data-name="Path 11" d="M30.18,0a30.182,30.182,0,0,0-9.541,58.816c1.508.279,2.062-.655,2.062-1.452,0-.719-.027-3.1-.041-5.619-8.4,1.826-10.168-3.561-10.168-3.561-1.373-3.488-3.351-4.416-3.351-4.416-2.738-1.873.206-1.835.206-1.835a6.344,6.344,0,0,1,4.626,3.111c2.692,4.613,7.06,3.279,8.782,2.508a6.431,6.431,0,0,1,1.916-4.036c-6.7-.763-13.75-3.351-13.75-14.915a11.681,11.681,0,0,1,3.11-8.1,10.842,10.842,0,0,1,.293-7.987s2.534-.811,8.3,3.094a28.613,28.613,0,0,1,15.114,0c5.76-3.9,8.291-3.094,8.291-3.094a10.831,10.831,0,0,1,.3,7.987,11.657,11.657,0,0,1,3.106,8.1c0,11.592-7.06,14.144-13.78,14.891,1.082.937,2.047,2.773,2.047,5.589,0,4.038-.034,7.288-.034,8.282,0,.8.543,1.745,2.073,1.448A30.184,30.184,0,0,0,30.18,0" fill="#00e2c7" fill-rule="evenodd"/>
        <path id="Path_12" data-name="Path 12" d="M22.063,86.191c-.066.15-.3.2-.517.092s-.342-.3-.271-.453.3-.2.52-.094.344.3.268.455" transform="translate(-10.632 -42.86)" fill="#00e2c7"/>
        <path id="Path_13" data-name="Path 13" d="M24.524,88.593c-.144.133-.426.071-.616-.139a.461.461,0,0,1-.088-.627c.148-.133.421-.071.619.139s.236.492.086.627" transform="translate(-11.871 -43.899)" fill="#00e2c7"/>
        <path id="Path_14" data-name="Path 14" d="M26.885,91.876c-.185.129-.488.008-.675-.26s-.185-.591,0-.72.485-.012.675.253.184.595,0,.726" transform="translate(-13.043 -45.443)" fill="#00e2c7"/>
        <path id="Path_15" data-name="Path 15" d="M29.925,95.272c-.165.182-.518.133-.776-.116a.58.58,0,0,1-.171-.771c.167-.183.522-.131.782.115s.342.591.165.771" transform="translate(-14.451 -47.16)" fill="#00e2c7"/>
        <path id="Path_16" data-name="Path 16" d="M34.2,97.56c-.073.236-.412.343-.754.243s-.565-.38-.5-.619.412-.35.756-.242.565.378.494.618" transform="translate(-16.475 -48.474)" fill="#00e2c7"/>
        <path id="Path_17" data-name="Path 17" d="M39.1,98.141c.008.249-.281.455-.64.46s-.653-.193-.657-.438.284-.455.644-.462.653.193.653.44" transform="translate(-18.913 -48.874)" fill="#00e2c7"/>
        <path id="Path_18" data-name="Path 18" d="M43.714,97.454c.043.242-.206.492-.563.558s-.675-.086-.719-.326.21-.5.56-.563.676.084.722.331" transform="translate(-21.224 -48.577)" fill="#00e2c7"/>
      </g>
    </g>
    <g id="Creative_Cloud" transform="translate(6860.478 -1266.226)" clip-path="url(#clip-path-2)">
      <path id="Path_19" data-name="Path 19" d="M73.952,26.442v2.435c-.023.132-.052.262-.068.393-.126,1.059-.208,2.125-.382,3.176a25.984,25.984,0,0,1-3.623,9.528A27.1,27.1,0,0,1,58.646,52.153a26.275,26.275,0,0,1-8.665,2.557c-.67.077-1.338.147-2.008.22H21.994a3.249,3.249,0,0,0-.393-.071,22.155,22.155,0,0,1-7.542-1.813,23.009,23.009,0,0,1-11.683-11.1A21.841,21.841,0,0,1,.218,34.76Q.107,33.848,0,32.937V30.575a3.157,3.157,0,0,0,.071-.393A21.762,21.762,0,0,1,1.492,23.59,23,23,0,0,1,13.011,10.927,22.566,22.566,0,0,1,22.03,8.6a25.055,25.055,0,0,1,4.633.212.585.585,0,0,0,.437-.142,27.4,27.4,0,0,1,7.572-5.487A26.5,26.5,0,0,1,43.38.611C44.1.529,44.818.461,45.538.387h2.215c.145.023.29.048.435.065,1.1.128,2.2.208,3.288.39a26.055,26.055,0,0,1,9.47,3.595A27.1,27.1,0,0,1,71.172,15.689a26.213,26.213,0,0,1,2.559,8.671c.079.694.147,1.389.22,2.082M32.6,10.689c.044.058.055.086.074.095a29.588,29.588,0,0,1,4.345,2.628.457.457,0,0,0,.405-.029,17.067,17.067,0,0,1,22.7,3.907,16.142,16.142,0,0,1,3.344,13.154,16.863,16.863,0,0,1-4.1,8.668,16.522,16.522,0,0,1-15.151,5.553,16,16,0,0,1-9.511-4.739c-3.384-3.418-6.789-6.813-10.182-10.221a2.746,2.746,0,0,0-1.607-.9,2.553,2.553,0,0,0-2.661,1.45,2.355,2.355,0,0,0,.569,2.876c3.783,3.713,7.532,7.461,11.311,11.178a18.263,18.263,0,0,0,2.075,1.766,19.854,19.854,0,0,0,9.242,3.559,22.3,22.3,0,0,0,7.874-.311A22.207,22.207,0,0,0,68.517,30.64a21.8,21.8,0,0,0-.2-7.151,21.227,21.227,0,0,0-4.993-10.235A21.7,21.7,0,0,0,44.609,5.718,20.79,20.79,0,0,0,36.47,8.113,21.476,21.476,0,0,0,32.6,10.689M30.777,49.75l-.307-.287c-1.547-1.46-3.1-2.911-4.63-4.39a1.253,1.253,0,0,0-.987-.416,18.749,18.749,0,0,1-4.622-.3,12.935,12.935,0,0,1,5.133-25.346,12.537,12.537,0,0,1,7.009,3.628c2.37,2.447,4.811,4.824,7.206,7.245a2.153,2.153,0,0,0,1.927.7,2.422,2.422,0,0,0,2.107-1.562,2.306,2.306,0,0,0-.535-2.557c-2.514-2.547-4.969-5.158-7.585-7.6A17.168,17.168,0,0,0,17.82,14.735a17.939,17.939,0,0,0,5.46,35.034q3.541,0,7.084,0c.117,0,.234-.01.414-.019" transform="translate(0 -0.389)" fill="#00e2c7"/>
    </g>
    <g id="Group_18" data-name="Group 18" transform="translate(6982.209 -1263.91)">
      <path id="Subtraction_3" data-name="Subtraction 3" d="M41.86,49.91H8.05A8.043,8.043,0,0,1,0,41.86V8.05A8.043,8.043,0,0,1,8.05,0H41.86a8.043,8.043,0,0,1,8.05,8.05V41.86a8.043,8.043,0,0,1-8.05,8.05ZM33,16.1h0L28.98,41.86h4.83l8.855-28.175L33.81,8.05H28.98L33,15.295,24.15,8.05H19.32l4.428,8.855L14.49,8.05H9.66l4.83,11.27L9.66,41.86h4.83l9.258-24.15L19.32,41.86h4.83Z" transform="translate(0)" fill="#00e2c7"/>
      <path id="Path_25" data-name="Path 25" d="M244.6,14.948c8.134,0,13.015,6.072,13.015,13.829,0,7.728-4.881,13.829-13.015,13.829s-13.015-6.072-13.015-13.829S236.464,14.948,244.6,14.948Zm-36.605,1.627V41.792H202.3v-24.4Zm21.15-.813v5.694l-3.254.407c-2.847.407-4.881,2.034-4.881,5.271V41.792h-5.694V27.133c0-6.963,4.067-10.152,10.575-10.965Zm-56.941,0a7.773,7.773,0,0,1,6.508,3.254,8.8,8.8,0,0,1,7.321-3.254c4.067,0,8.948,2.44,8.948,10.575V41.792h-5.694V26.336c0-2.847-1.773-4.881-4.474-4.881s-4.474,2.034-4.474,4.881V41.792h-5.694V26.336c0-2.847-1.774-4.881-4.474-4.881-2.749,0-4.474,2.034-4.474,4.881V41.792H160v-24.4l5.694-.813v2.44A7.52,7.52,0,0,1,172.2,15.761Zm72.4,4.881c-4.881,0-7.321,3.643-7.321,8.134s2.44,8.134,7.321,8.134,7.321-3.661,7.321-8.134S249.479,20.642,244.6,20.642ZM205.146,6a3.414,3.414,0,0,1,3.661,3.661,3.661,3.661,0,0,1-7.321,0A3.414,3.414,0,0,1,205.146,6Z" transform="translate(-94.924 -4.083)" fill="#00e2c7" fill-rule="evenodd"/>
    </g>
    <g id="Group_20" data-name="Group 20" transform="translate(7194.292 -1269.27)">
      <g id="Group_19" data-name="Group 19" transform="translate(0 0)" clip-path="url(#clip-path-3)">
        <path id="Path_26" data-name="Path 26" d="M9.443,50.419.827,58.275a2.536,2.536,0,0,0,0,3.751l3.354,3.048a2.536,2.536,0,0,0,3.239.144l9.962-7.558Z" transform="translate(0 -19.731)" fill="#00e2c7"/>
        <path id="Path_27" data-name="Path 27" d="M73.137,60.177a3.793,3.793,0,0,1-4.326-.736,2.228,2.228,0,0,0,3.8-1.575V2.687a2.228,2.228,0,0,0-3.8-1.576A3.794,3.794,0,0,1,73.137.375l12.539,6.03a3.8,3.8,0,0,1,2.155,3.429V50.719a3.8,3.8,0,0,1-2.155,3.428Z" transform="translate(-26.929 0)" fill="#00e2c7"/>
        <path id="Path_28" data-name="Path 28" d="M73.137,60.177a3.793,3.793,0,0,1-4.326-.736,2.228,2.228,0,0,0,3.8-1.575V2.687a2.228,2.228,0,0,0-3.8-1.576A3.794,3.794,0,0,1,73.137.375l12.539,6.03a3.8,3.8,0,0,1,2.155,3.429V50.719a3.8,3.8,0,0,1-2.155,3.428Z" transform="translate(-26.929 0)" fill="#00e2c7"/>
        <path id="Path_29" data-name="Path 29" d="M56.867,3.325c0-1.016-.541-1.284-1.4-1.625a3.173,3.173,0,0,0-2.439.632L30.125,23.218l9.641,7.314,17.1-12.974Z" transform="translate(-11.789 -0.637)" fill="#00e2c7"/>
        <path id="Path_30" data-name="Path 30" d="M43.728,68.975a1.8,1.8,0,0,0,1.349-1.755V52.987L7.422,24.42a2.536,2.536,0,0,0-3.239.144L.83,27.613a2.537,2.537,0,0,0,0,3.751L41.608,68.546a3.13,3.13,0,0,0,2.119.429" transform="translate(0 -9.355)" fill="#00e2c7"/>
      </g>
    </g>
    <path id="Union_1" data-name="Union 1" d="M4.925,70.062,0,14.964H54.147L49.222,70.032,27.029,76.161Zm8.238-9.431L27.073,64.5v-.038l13.85-3.83L42.789,39.9H18.119l-.627-6.917H43.4l.627-6.753H10.059L11.91,46.634H27.044v.015H35.4l-.791,8.776-7.552,2.019-7.567-2.019-.478-5.4H12.208ZM40.909,10.264V0h3.433V6.872h4.865v3.392Zm-5.134,0V5.177l-2.4,3.689-2.4-3.689v5.087H27.6V0h3.6L33.4,3.615,35.611,0h3.6V10.264Zm-16.163,0V3.421h-3.03V0h9.507V3.421H23.044v6.843Zm-7.97,0V6.843H8.507v3.421H5.045V0H8.477V3.391h3.164V0h3.433V10.264Z" transform="translate(6870.217 -1168.233)" fill="#00e2c7"/>
    <path id="Union_2" data-name="Union 2" d="M4.91,70.044,0,14.967H53.957L49.042,70.035l-22.1,6.126Zm8.2-9.407,13.837,3.841.031-.009h0L40.8,60.636l.1-1.141,1.587-17.783.165-1.814,1.219-13.672H10.041l.614,6.755H36.474L35.859,39.9h-24.6l.605,6.755H35.273l-.784,8.761-7.534,2.033h-.006l-7.523-2.031-.481-5.387H12.164ZM32.334,10.413V7.289h4.76V6.694h-4.76V0h8.181V2.975h-4.76v.6h4.76v6.843Zm-9.818,0V7.289h4.76V6.694h-4.76V0H30.7V2.975h-4.76v.6H30.7v6.843ZM12.7,10.264V0H20.88V3.421H16.12V6.843h4.76v3.421Z" transform="translate(7340.37 -1375.449)" fill="#00e2c7"/>
    <g id="Python-logo-notext" transform="translate(7191.249 -1163.364)">
      <path id="Path_37" data-name="Path 37" d="M33.572-.077C17.765-.077,17.6,6.059,17.6,7.322v7.665H33.877v2.3H11.128C6.29,17.289.21,20.23.21,33.266c0,11.974,4.743,16.6,9.529,16.6h5.687V41.882c0-3.342,1.656-9.529,9.377-9.529H40.952c2.375,0,9.073-1.032,9.073-8.768V8.843C50.025,6.924,49.7-.077,33.572-.077ZM24.595,5.078a2.929,2.929,0,1,1-2.929,2.929A2.926,2.926,0,0,1,24.595,5.078Z" transform="translate(-0.21 0.077)" fill="#00e2c7"/>
      <path id="Path_38" data-name="Path 38" d="M44.819,77.809c15.8,0,16-6.252,16-7.4V62.744h-16.3v-2.3H67.263c4.875,0,10.918-3.015,10.918-15.977,0-14.2-6.414-16.6-9.529-16.6H62.964V35.85c0,3.342-1.6,9.529-9.377,9.529H37.439c-2.369,0-9.073,1.154-9.073,8.768V68.888C28.366,72.071,30.311,77.809,44.819,77.809ZM53.8,72.654a2.929,2.929,0,1,1,2.929-2.929A2.926,2.926,0,0,1,53.8,72.654Z" transform="translate(-11.229 -10.856)" fill="#00e2c7"/>
    </g>
    <path id="notion-logo-1" d="M20.883,11.415c1.67,1.357,2.3,1.254,5.433,1.044l29.569-1.776c.627,0,.106-.626-.1-.73L50.872,6.4a5.9,5.9,0,0,0-4.6-1.358L17.642,7.134c-1.044.1-1.253.626-.837,1.044Zm1.775,6.891V49.418c0,1.672.836,2.3,2.716,2.194l32.5-1.88c1.882-.1,2.091-1.254,2.091-2.612v-30.9c0-1.356-.522-2.087-1.673-1.983L24.33,16.217c-1.253.105-1.671.732-1.671,2.089Zm32.081,1.669c.208.941,0,1.88-.942,1.986l-1.566.312V45.242a8.159,8.159,0,0,1-3.658,1.148c-1.673,0-2.091-.522-3.344-2.088L34.988,28.224V43.781l3.241.731s0,1.878-2.615,1.878l-7.208.418a1.344,1.344,0,0,1,.731-1.67l1.881-.521V24.048l-2.612-.209a1.953,1.953,0,0,1,1.776-2.4l7.733-.521L48.574,37.2V22.8l-2.718-.312a1.767,1.767,0,0,1,1.671-2.088ZM15.238,4.316,45.02,2.122c3.657-.314,4.6-.1,6.9,1.566l9.507,6.682c1.569,1.149,2.091,1.462,2.091,2.714V49.732c0,2.3-.837,3.655-3.762,3.863L25.168,55.683c-2.2.1-3.241-.208-4.391-1.671l-7-9.083A7.016,7.016,0,0,1,12,40.543V7.968c0-1.878.837-3.445,3.238-3.653Z" transform="translate(7187.161 -1366.22)" fill="#00e2c7" fill-rule="evenodd"/>
    <path id="Subtraction_9" data-name="Subtraction 9" d="M35,70A34.835,34.835,0,0,1,15.43,64.019a35.1,35.1,0,0,1-12.68-15.4A34.952,34.952,0,0,1,5.977,15.43a35.1,35.1,0,0,1,15.4-12.68,34.952,34.952,0,0,1,33.19,3.227,35.1,35.1,0,0,1,12.68,15.4,34.952,34.952,0,0,1-3.227,33.19,35.1,35.1,0,0,1-15.4,12.68A34.779,34.779,0,0,1,35,70Zm.359-37.19c.011.415,2.163,15.7,2.185,15.853A10.086,10.086,0,0,0,47.151,41.6l7.425-18.039h0a8.892,8.892,0,0,0-6.134,2.251A12.567,12.567,0,0,0,45.185,30.9h.022l-3.167,9.981c0-.756-2.162-17.153-2.184-17.319a8.4,8.4,0,0,0-5.9,2.252A12.956,12.956,0,0,0,30.771,30.9l-3.865,10c0-.718-.541-9.823-.546-9.915a8.171,8.171,0,0,0-7.927-7.4l4.1,25.071a9.084,9.084,0,0,0,6.189-2.252,12.817,12.817,0,0,0,3.355-5.086Z" transform="translate(7332.457 -1164.813)" fill="#00e2c7"/>
    <path id="path833" d="M90.568,7.5A5.394,5.394,0,0,1,91.178,10l.06,1.251V20l.062,1.252a3.84,3.84,0,0,0,3.692,3.685L96.237,25V11.253L96.3,10a5.476,5.476,0,0,1,.621-2.517,4.995,4.995,0,0,1,8.648.016,5.5,5.5,0,0,1,.609,2.5l.062,1.247V20l.062,1.252a3.823,3.823,0,0,0,3.692,3.685l1.245.062V10a10,10,0,0,0-17.5-6.613,9.989,9.989,0,0,0-13.1-1.671A6.9,6.9,0,0,0,76.24,0V25l1.251-.062a3.766,3.766,0,0,0,3.685-3.685L81.242,20V11.253L81.3,10a5.481,5.481,0,0,1,.61-2.512,5,5,0,0,1,8.653,0ZM5,24.937,6.249,25H25l-.062-1.247a3.869,3.869,0,0,0-3.686-3.69L20,20H8.751L23.746,5l-.062-1.245A3.78,3.78,0,0,0,20,.063L18.747.007,0,0,.062,1.252A3.876,3.876,0,0,0,3.747,4.938L5,5H16.246L1.251,20l.062,1.251A3.815,3.815,0,0,0,5,24.936ZM71.333,3.66A12.505,12.505,0,1,1,62.485,0a12.5,12.5,0,0,1,8.848,3.66ZM67.8,7.2a7.5,7.5,0,1,1-10.606,0A7.5,7.5,0,0,1,67.8,7.2ZM36.254,0a12.506,12.506,0,1,1-.016,0Zm5.3,7.2a7.5,7.5,0,1,1-10.606,0,7.5,7.5,0,0,1,10.606,0Z" transform="translate(7311.763 -1251.454)" fill="#00e2c7" fill-rule="evenodd"/>
  </g>
</svg>
